<svg width="100" height="100" viewBox="0 0 100 100" fill="none" xmlns="http://www.w3.org/2000/svg">
<path d="M8.33331 52.0834C8.33331 39.4167 18.5833 29.1667 31.25 29.1667H75C84.2083 29.1667 91.6667 36.625 91.6667 45.8334C91.6667 55.0417 84.2083 62.5 75 62.5H39.5833C33.8333 62.5 29.1666 57.8334 29.1666 52.0834C29.1666 46.3334 33.8333 41.6667 39.5833 41.6667H70.8333V50H39.2083C36.9166 50 36.9166 54.1667 39.2083 54.1667H75C79.5833 54.1667 83.3333 50.4167 83.3333 45.8334C83.3333 41.25 79.5833 37.5 75 37.5H31.25C23.2083 37.5 16.6666 44.0417 16.6666 52.0834C16.6666 60.125 23.2083 66.6667 31.25 66.6667H70.8333V75H31.25C18.5833 75 8.33331 64.75 8.33331 52.0834Z" fill="#323232"/>
</svg>
